<svg xmlns="http://www.w3.org/2000/svg" version="1.1" xmlns:xlink="http://www.w3.org/1999/xlink" width="2000" height="164" viewBox="0 0 2000 164"><svg xml:space="preserve" width="2000" height="164" data-version="2" data-id="lg_sVKs5AwhJRlYpfH6qJ" viewBox="0 0 546 164" x="0" y="0"><rect width="100%" height="100%" fill="transparent"></rect><path fill="#87c498" d="M21.87 99.225q-4.65 0-7.06-2.88-2.42-2.88-2.42-7.72v-43.62q0-4.83 1.81-7.86 1.81-3.02 4.74-4.41 2.93-1.4 6.37-1.4 5.12 0 8.65 2.7 3.54 2.7 5.49 9.48l10.04 34.32h1.49v-35.71q0-4.93 2.51-7.77 2.51-2.83 7.16-2.83 4.84 0 7.21 2.83 2.37 2.84 2.37 7.77v42.04q0 7.81-3.44 11.53-3.44 3.72-9.67 3.72-6.32 0-9.86-3.35-3.53-3.35-5.39-9.86l-6.6-22.6q-.19-.93-.7-1.72-.51-.79-1.35-.79-1.02 0-1.4.79-.37.79-.37 1.72v25.02q0 4.84-2.42 7.72-2.41 2.88-7.16 2.88m53.48-59.43q0-3.99 2.46-6.46 2.47-2.46 6.84-2.46 4.65 0 6.93 2.41 2.28 2.42 2.28 6.42 0 3.91-2.28 6.28t-6.93 2.37q-4.56 0-6.93-2.37t-2.37-6.19m9.3 59.43q-4.37 0-6.51-2.42-2.14-2.41-2.14-6.04v-31.81q0-4 2.14-6.32 2.14-2.33 6.51-2.33 4.37 0 6.56 2.33 2.18 2.32 2.18 6.14v31.99q0 3.63-2.28 6.04-2.28 2.42-6.46 2.42m23.06 0q-4.37 0-6.79-2.51-2.41-2.51-2.41-6.32v-30.51q0-4 2.41-6.65 2.42-2.65 6.79-2.65t6.7 2.65q2.32 2.65 2.32 6.47v1.95h1.77q.37-4.93 3.72-8.09t7.91-3.16q4.55 0 7.2 2.79 2.65 2.79 2.65 7.44 0 4.37-2.51 7.25t-6.41 2.88q-3.26 0-5.44-1.53-2.19-1.54-3.21-3.58-2.98-.37-4.33.6-1.35.98-1.35 3.86v20.28q0 3.81-2.32 6.32-2.33 2.51-6.7 2.51m59.8 0q-6.04 0-10.32-3.53-4.28-3.54-7.07-11.72l-7.35-21.2q-1.48-4.19.05-7.72 1.53-3.54 5.72-4.47 3.72-.83 6.56.75 2.83 1.58 4.04 5.3l7.26 21.29q1.3 3.72 3.2 5.49 1.91 1.77 4.7.84 2.6-1.02 2.84-3.4.23-2.37-1.07-5.53-1.12-2.88-2.98-4.93-1.86-2.04-3.35-4.28-1.48-2.23-1.48-5.58 0-4.83 3.11-7.58 3.12-2.74 8.23-2.55 4.37.09 7.16 3.07 2.79 2.97 2.79 7.53 0 2.51-.83 5.39-.84 2.89-1.86 6.05l-3.72 11.72q-1.49 4.65-3.31 8.04-1.81 3.39-4.65 5.21-2.83 1.81-7.67 1.81m39.53 0q-6.89 0-10.74-3.72-3.86-3.72-3.86-10.41 0-6.7 4.46-9.72 4.46-3.03 11.44-3.03 4.09 0 7.44.56 3.35.56 6.04 1.58h.28v-1.39q0-2.14-1.58-3.4-1.58-1.25-4-1.16-2.32 0-3.95.28-1.63.28-4.05.93-4.46 1.12-7.71-.19-3.26-1.3-4.47-5.11-1.11-4 .51-6.7 1.63-2.69 4.98-4.18 2.88-1.4 6.46-2.33 3.58-.93 7.77-.93 12.18 0 17.9 5.91 5.72 5.9 5.72 19.76v14.42q0 3.81-2.33 6.32-2.32 2.51-6.41 2.51-4.47 0-6.65-2.51-2.19-2.51-2.19-6.14v-2.14h-1.86q0 2.42-.88 4.93t-3.63 4.19q-2.74 1.67-8.69 1.67m.93-20.37q0 1.59 1.16 2.24 1.16.65 5.07.65 3.53 0 4.93-.65 1.39-.65 1.39-2.24 0-1.48-1.39-2.09-1.4-.6-4.93-.6-3.91 0-5.07.6-1.16.61-1.16 2.09m45.57 20.37q-4.1 0-6.56-2.46-2.46-2.47-2.46-6.09v-30.79q0-3.9 2.32-6.6 2.33-2.7 6.7-2.7 4.27 0 6.51 2.7 2.23 2.7 2.23 6.79v4.65h1.67q0-5.3 1.91-8.37 1.91-3.07 4.88-4.42 2.98-1.35 5.95-1.35 7.16 0 10.51 5.16 3.35 5.17 3.35 14.65v20.28q0 3.62-2.42 6.09-2.42 2.46-6.51 2.46-4.18 0-6.65-2.46-2.46-2.47-2.46-6.09v-16.47q0-3.34-1.26-5.2-1.25-1.86-3.67-1.86-2.79 0-4.05 2.04-1.25 2.05-1.25 5.21v16.28q0 3.62-2.33 6.09-2.32 2.46-6.41 2.46m55.61 0q-6.88 0-10.74-3.72-3.86-3.72-3.86-10.41 0-6.7 4.46-9.72 4.47-3.03 11.44-3.03 4.09 0 7.44.56 3.35.56 6.05 1.58h.28v-1.39q0-2.14-1.58-3.4-1.59-1.25-4-1.16-2.33 0-3.96.28-1.62.28-4.04.93-4.47 1.12-7.72-.19-3.26-1.3-4.46-5.11-1.12-4 .51-6.7 1.62-2.69 4.97-4.18 2.89-1.4 6.47-2.33 3.58-.93 7.76-.93 12.18 0 17.9 5.91 5.72 5.9 5.72 19.76v14.42q0 3.81-2.32 6.32-2.33 2.51-6.42 2.51-4.46 0-6.65-2.51-2.18-2.51-2.18-6.14v-2.14h-1.86q0 2.42-.89 4.93-.88 2.51-3.62 4.19-2.75 1.67-8.7 1.67m.93-20.37q0 1.59 1.16 2.24 1.17.65 5.07.65 3.54 0 4.93-.65 1.4-.65 1.4-2.24 0-1.48-1.4-2.09-1.39-.6-4.93-.6-3.9 0-5.07.6-1.16.61-1.16 2.09m59.99 21.58q-6.42 0-11.86-1.25-5.44-1.26-8.7-4-3.25-2.75-3.25-7.3 0-4 2.42-6.61 2.41-2.6 6.41-2.6 2.51 0 5.07.79 2.56.79 5.44 1.53 2.88.75 6.23.75 2.98 0 4-.33 1.02-.32 1.02-1.25 0-1.12-1.25-1.49-1.26-.37-4.23-.93l-6.7-1.3q-4.18-.84-8.14-2.19-3.95-1.35-6.51-4.04-2.55-2.7-2.55-7.35 0-6.33 5.62-9.86 5.63-3.53 16.32-3.53 6.14 0 11.03 1.21 4.88 1.2 7.76 3.58 2.88 2.37 2.88 5.9.1 3.81-2.04 6.14-2.14 2.32-5.4 2.32-2.32 0-4.69-.6-2.37-.6-5.12-1.3-2.74-.7-6.28-.79-2.51-.19-4.09.28-1.58.46-1.58 1.48 0 1.12 1.86 1.54 1.86.42 5.58 1.07l6.6 1.21q6.05 1.02 9.63 2.56 3.58 1.53 5.16 4.23 1.58 2.69 1.58 7.44 0 4.93-2.83 8.23-2.84 3.3-7.86 4.88-5.02 1.58-11.53 1.58"></path><path fill="#ddd1a9" d="M15.8 157.585H6.42q-.34 0-.56-.22-.22-.22-.22-.56v-14.06q0-.34.22-.56.22-.22.56-.22h9.38q.32 0 .55.21.23.21.23.55 0 .3-.23.52-.23.22-.55.22H7.2v5.52h6.26q.34 0 .56.22.22.22.22.54 0 .32-.22.54-.22.22-.56.22H7.2v5.58h8.6q.32 0 .55.22.23.22.23.52 0 .34-.23.55-.23.21-.55.21m11.12 0q-.24 0-.39-.08-.15-.08-.31-.28l-3.46-4.4-.6-.52-3.48-4.42q-.22-.26-.21-.54.01-.28.19-.49.18-.21.52-.21t.58.24l3.36 4.3.54.44 3.72 4.76q.26.32.22.6-.04.28-.25.44-.21.16-.43.16m-7.92 0q-.32 0-.51-.2t-.2-.48q-.01-.28.21-.54l3.68-4.6.86 1.14-3.5 4.44q-.18.24-.54.24m8.3-9.68-3.62 4.48-.98-1 3.46-4.38q.14-.2.31-.28.17-.08.35-.08.34 0 .52.21t.17.5q-.01.29-.21.55m3.12 14.36q-.36 0-.57-.21-.21-.21-.21-.57v-9.44q.02-1.56.75-2.81t1.98-1.97q1.25-.72 2.81-.72 1.6 0 2.86.73 1.26.73 1.99 1.99t.73 2.86q0 1.58-.71 2.84-.71 1.26-1.93 1.99t-2.76.73q-1.34 0-2.43-.57t-1.75-1.51v5.88q0 .36-.21.57-.21.21-.55.21m4.76-5.98q1.16 0 2.08-.54.92-.54 1.45-1.49.53-.95.53-2.13 0-1.2-.53-2.14-.53-.94-1.45-1.49-.92-.55-2.08-.55-1.14 0-2.06.55-.92.55-1.44 1.49-.52.94-.52 2.14 0 1.18.52 2.13t1.44 1.49q.92.54 2.06.54m13.56 1.4q-1.62 0-2.87-.71t-1.96-1.97q-.71-1.26-.71-2.88 0-1.64.67-2.89.67-1.25 1.85-1.97 1.18-.72 2.72-.72 1.52 0 2.65.69t1.75 1.91q.62 1.22.62 2.78 0 .32-.2.51t-.52.19h-8.5v-1.28h8.66l-.86.62q.02-1.16-.42-2.08-.44-.92-1.25-1.44-.81-.52-1.93-.52-1.14 0-2 .54-.86.54-1.33 1.49-.47.95-.47 2.17t.53 2.16q.53.94 1.45 1.48.92.54 2.12.54.72 0 1.45-.25t1.17-.63q.22-.18.5-.19.28-.01.48.15.26.24.27.52.01.28-.23.48-.66.56-1.68.93t-1.96.37m8.84-6.84h-.88q.06-1.24.65-2.22.59-.98 1.54-1.54.95-.56 2.11-.56.92 0 1.42.26.5.26.38.76-.08.3-.27.4-.19.1-.46.08-.27-.02-.61-.04-1.12-.1-1.99.23-.87.33-1.38 1.01-.51.68-.51 1.62m-.76 6.74q-.36 0-.56-.2-.2-.2-.2-.56v-9.42q0-.36.2-.56.2-.2.56-.2.36 0 .56.2.2.2.2.56v9.42q0 .36-.2.56-.2.2-.56.2m9.5 0q-.36 0-.57-.21-.21-.21-.21-.57v-9.38q0-.36.21-.57.21-.21.57-.21.34 0 .55.21.21.21.21.57v9.38q0 .36-.21.57-.21.21-.55.21m-.02-13.02q-.44 0-.76-.32t-.32-.78q0-.5.33-.79.33-.29.77-.29.42 0 .75.29t.33.79q0 .46-.32.78t-.78.32m9.66 13.12q-1.62 0-2.87-.71t-1.96-1.97q-.71-1.26-.71-2.88 0-1.64.67-2.89.67-1.25 1.85-1.97 1.18-.72 2.72-.72 1.52 0 2.65.69t1.75 1.91q.62 1.22.62 2.78 0 .32-.2.51t-.52.19h-8.5v-1.28h8.66l-.86.62q.02-1.16-.42-2.08-.44-.92-1.25-1.44-.81-.52-1.93-.52-1.14 0-2 .54-.86.54-1.33 1.49-.47.95-.47 2.17t.53 2.16q.53.94 1.45 1.48.92.54 2.12.54.72 0 1.45-.25t1.17-.63q.22-.18.5-.19.28-.01.48.15.26.24.27.52.01.28-.23.48-.66.56-1.68.93t-1.96.37m16.7-.1q-.34 0-.56-.22-.22-.22-.22-.54v-5.2q0-1.24-.47-2.04t-1.28-1.2q-.81-.4-1.83-.4-.98 0-1.77.38t-1.25 1.04q-.46.66-.46 1.5h-1.1q.04-1.26.68-2.25t1.7-1.56q1.06-.57 2.36-.57 1.42 0 2.54.59t1.77 1.73q.65 1.14.65 2.78v5.2q0 .32-.22.54-.22.22-.54.22m-8.6 0q-.36 0-.57-.21-.21-.21-.21-.55v-9.4q0-.36.21-.57.21-.21.57-.21.34 0 .55.21.21.21.21.57v9.4q0 .34-.21.55-.21.21-.55.21m17.64.1q-1.58 0-2.81-.73t-1.94-1.99q-.71-1.26-.71-2.84 0-1.6.68-2.86.68-1.26 1.86-1.99 1.18-.73 2.72-.73 1.22 0 2.25.48t1.81 1.44q.22.24.16.51t-.34.47q-.22.16-.49.11t-.47-.29q-1.16-1.32-2.92-1.32-1.12 0-1.97.54-.85.54-1.32 1.48-.47.94-.47 2.16 0 1.2.5 2.14.5.94 1.4 1.48.9.54 2.06.54.78 0 1.43-.21.65-.21 1.15-.65.24-.2.5-.22.26-.02.48.16.24.22.27.5.03.28-.19.48-1.46 1.34-3.64 1.34m8.12-.1q-.36 0-.57-.21-.21-.21-.21-.57v-9.38q0-.36.21-.57.21-.21.57-.21.34 0 .55.21.21.21.21.57v9.38q0 .36-.21.57-.21.21-.55.21m-.02-13.02q-.44 0-.76-.32t-.32-.78q0-.5.33-.79.33-.29.77-.29.42 0 .75.29t.33.79q0 .46-.32.78t-.78.32m9.52 13.12q-1.54 0-2.76-.73-1.22-.73-1.93-1.99t-.71-2.84q0-1.6.73-2.86.73-1.26 1.99-1.99t2.84-.73q1.58 0 2.83.73t1.98 1.99q.73 1.26.75 2.86l-.62.48q0 1.44-.67 2.59t-1.82 1.82q-1.15.67-2.61.67m.16-1.4q1.16 0 2.07-.54.91-.54 1.44-1.49.53-.95.53-2.13 0-1.2-.53-2.14-.53-.94-1.44-1.49-.91-.55-2.07-.55-1.14 0-2.06.55-.92.55-1.46 1.49-.54.94-.54 2.14 0 1.18.54 2.13t1.46 1.49q.92.54 2.06.54m4.78 1.3q-.34 0-.56-.21-.22-.21-.22-.55v-3.42l.38-1.58 1.18.3v4.7q0 .34-.22.55-.22.21-.56.21m7.6.1q-1.18 0-2.34-.4t-1.88-1.2q-.22-.24-.18-.54.04-.3.3-.52.28-.2.58-.16.3.04.5.26.48.56 1.27.86.79.3 1.75.3 1.48 0 2.14-.51.66-.51.68-1.23 0-.72-.68-1.19t-2.24-.73q-2.02-.32-2.96-1.12t-.94-1.9q0-1.02.54-1.7.54-.68 1.44-1.02.9-.34 1.98-.34 1.34 0 2.31.46t1.57 1.24q.2.26.16.54-.04.28-.32.46-.24.14-.55.09-.31-.05-.53-.29-.5-.58-1.16-.85-.66-.27-1.52-.27-1.1 0-1.76.45-.66.45-.66 1.13 0 .46.25.8t.86.6q.61.26 1.71.44 1.5.24 2.37.71.87.47 1.24 1.1.37.63.37 1.37 0 .94-.55 1.65t-1.52 1.11q-.97.4-2.23.4m23.18-.1h-9.38q-.34 0-.56-.22-.22-.22-.22-.56v-14.06q0-.34.22-.56.22-.22.56-.22h9.38q.32 0 .55.21.23.21.23.55 0 .3-.23.52-.23.22-.55.22h-8.6v5.52h6.26q.34 0 .56.22.22.22.22.54 0 .32-.22.54-.22.22-.56.22h-6.26v5.58h8.6q.32 0 .55.22.23.22.23.52 0 .34-.23.55-.23.21-.55.21m11.12 0q-.24 0-.39-.08-.15-.08-.31-.28l-3.46-4.4-.6-.52-3.48-4.42q-.22-.26-.21-.54.01-.28.19-.49.18-.21.52-.21t.58.24l3.36 4.3.54.44 3.72 4.76q.26.32.22.6-.04.28-.25.44-.21.16-.43.16m-7.92 0q-.32 0-.51-.2t-.2-.48q-.01-.28.21-.54l3.68-4.6.86 1.14-3.5 4.44q-.18.24-.54.24m8.3-9.68-3.62 4.48-.98-1 3.46-4.38q.14-.2.31-.28.17-.08.35-.08.34 0 .52.21t.17.5q-.01.29-.21.55m7.22 9.78q-1.58 0-2.81-.73t-1.94-1.99q-.71-1.26-.71-2.84 0-1.6.68-2.86.68-1.26 1.86-1.99 1.18-.73 2.72-.73 1.22 0 2.25.48t1.81 1.44q.22.24.16.51t-.34.47q-.22.16-.49.11t-.47-.29q-1.16-1.32-2.92-1.32-1.12 0-1.97.54-.85.54-1.32 1.48-.47.94-.47 2.16 0 1.2.5 2.14.5.94 1.4 1.48.9.54 2.06.54.78 0 1.43-.21.65-.21 1.15-.65.24-.2.5-.22.26-.02.48.16.24.22.27.5.03.28-.19.48-1.46 1.34-3.64 1.34m8.64-.1h-.26q-.8 0-1.43-.44-.63-.44-.98-1.22t-.35-1.8v-11.4q0-.34.21-.55.21-.21.55-.21.34 0 .55.21.21.21.21.55v11.4q0 .86.35 1.4.35.54.89.54h.5q.3 0 .48.21t.18.55q0 .34-.25.55-.25.21-.65.21m7.78.12q-1.42 0-2.54-.59t-1.77-1.73q-.65-1.14-.65-2.78v-5.2q0-.32.22-.54.22-.22.54-.22.34 0 .56.22.22.22.22.54v5.2q0 1.24.47 2.04t1.28 1.2q.81.4 1.83.4.98 0 1.77-.38t1.25-1.04q.46-.66.46-1.5h1.1q-.06 1.26-.69 2.25-.63.99-1.69 1.56-1.06.57-2.36.57m4.4-.12q-.34 0-.55-.21-.21-.21-.21-.57v-9.4q0-.34.21-.55.21-.21.55-.21.34 0 .56.21.22.21.22.55v9.4q0 .36-.22.57-.22.21-.56.21m8.2.1q-1.18 0-2.34-.4t-1.88-1.2q-.22-.24-.18-.54.04-.3.3-.52.28-.2.58-.16.3.04.5.26.48.56 1.27.86.79.3 1.75.3 1.48 0 2.14-.51.66-.51.68-1.23 0-.72-.68-1.19t-2.24-.73q-2.02-.32-2.96-1.12t-.94-1.9q0-1.02.54-1.7.54-.68 1.44-1.02.9-.34 1.98-.34 1.34 0 2.31.46t1.57 1.24q.2.26.16.54-.04.28-.32.46-.24.14-.55.09-.31-.05-.53-.29-.5-.58-1.16-.85-.66-.27-1.52-.27-1.1 0-1.76.45-.66.45-.66 1.13 0 .46.25.8t.86.6q.61.26 1.71.44 1.5.24 2.37.71.87.47 1.24 1.1.37.63.37 1.37 0 .94-.55 1.65t-1.52 1.11q-.97.4-2.23.4m8.06-.1q-.36 0-.57-.21-.21-.21-.21-.57v-9.38q0-.36.21-.57.21-.21.57-.21.34 0 .55.21.21.21.21.57v9.38q0 .36-.21.57-.21.21-.55.21m-.02-13.02q-.44 0-.76-.32t-.32-.78q0-.5.33-.79.33-.29.77-.29.42 0 .75.29t.33.79q0 .46-.32.78t-.78.32m8.44 13.02q-.48 0-.72-.52l-4.44-9.42q-.12-.26-.02-.52.1-.26.4-.4.28-.14.54-.04t.4.36l4.26 9.22h-.82l4.2-9.22q.12-.28.41-.37.29-.09.57.03.28.14.38.41.1.27-.02.51l-4.38 9.44q-.24.52-.76.52m12.14.1q-1.54 0-2.76-.73-1.22-.73-1.93-1.99t-.71-2.84q0-1.6.73-2.86.73-1.26 1.99-1.99t2.84-.73q1.58 0 2.83.73t1.98 1.99q.73 1.26.75 2.86l-.62.48q0 1.44-.67 2.59t-1.82 1.82q-1.15.67-2.61.67m.16-1.4q1.16 0 2.07-.54.91-.54 1.44-1.49.53-.95.53-2.13 0-1.2-.53-2.14-.53-.94-1.44-1.49-.91-.55-2.07-.55-1.14 0-2.06.55-.92.55-1.46 1.49-.54.94-.54 2.14 0 1.18.54 2.13t1.46 1.49q.92.54 2.06.54m4.78 1.3q-.34 0-.56-.21-.22-.21-.22-.55v-3.42l.38-1.58 1.18.3v4.7q0 .34-.22.55-.22.21-.56.21m14.24.2q-1.28 0-2.37-.37t-1.89-1.05q-.8-.68-1.22-1.58-.16-.32-.01-.59.15-.27.51-.37.28-.08.55.06t.41.42q.3.58.88 1.04.58.46 1.38.71.8.25 1.76.25 1.06 0 1.88-.35.82-.35 1.29-1.02.47-.67.47-1.63 0-1.22-.9-2.1-.9-.88-2.82-1.12-2.34-.28-3.66-1.45-1.32-1.17-1.32-2.87 0-1.22.65-2.12.65-.9 1.79-1.39 1.14-.49 2.62-.49 1.1 0 2 .35.9.35 1.57.92.67.57 1.09 1.25.2.32.13.62t-.35.46q-.3.14-.61.04t-.47-.38q-.3-.46-.75-.87t-1.09-.65q-.64-.24-1.54-.26-1.58 0-2.54.67t-.96 1.95q0 .68.36 1.25t1.19.98q.83.41 2.23.61 2.5.36 3.71 1.53t1.21 3.05q0 1.08-.39 1.92-.39.84-1.1 1.41-.71.57-1.66.87-.95.3-2.03.3m13.22-.1q-1.6 0-2.86-.72-1.26-.72-1.98-1.98t-.72-2.86q0-1.62.72-2.88.72-1.26 1.98-1.98t2.86-.72q1.6 0 2.85.72t1.97 1.98q.72 1.26.74 2.88 0 1.6-.73 2.86-.73 1.26-1.98 1.98t-2.85.72m0-1.4q1.16 0 2.08-.54.92-.54 1.44-1.48.52-.94.52-2.14 0-1.2-.52-2.15t-1.44-1.49q-.92-.54-2.08-.54-1.16 0-2.08.54-.92.54-1.45 1.49-.53.95-.53 2.15t.53 2.14q.53.94 1.45 1.48.92.54 2.08.54m11.18 1.3h-.26q-.8 0-1.43-.44-.63-.44-.98-1.22t-.35-1.8v-11.4q0-.34.21-.55.21-.21.55-.21.34 0 .55.21.21.21.21.55v11.4q0 .86.35 1.4.35.54.89.54h.5q.3 0 .48.21t.18.55q0 .34-.25.55-.25.21-.65.21m8 .1q-1.6 0-2.86-.72-1.26-.72-1.98-1.98t-.72-2.86q0-1.62.72-2.88.72-1.26 1.98-1.98t2.86-.72q1.6 0 2.85.72t1.97 1.98q.72 1.26.74 2.88 0 1.6-.73 2.86-.73 1.26-1.98 1.98t-2.85.72m0-1.4q1.16 0 2.08-.54.92-.54 1.44-1.48.52-.94.52-2.14 0-1.2-.52-2.15t-1.44-1.49q-.92-.54-2.08-.54-1.16 0-2.08.54-.92.54-1.45 1.49-.53.95-.53 2.15t.53 2.14q.53.94 1.45 1.48.92.54 2.08.54m14.8 1.3q-.34 0-.56-.22-.22-.22-.22-.56v-14.06q0-.34.22-.56.22-.22.56-.22h4q1.48 0 2.62.65 1.14.65 1.78 1.79.64 1.14.64 2.64 0 1.46-.64 2.59t-1.78 1.78q-1.14.65-2.62.65h-3.22v4.74q0 .34-.22.56-.22.22-.56.22m.78-14.12v7.1h3.22q1.02 0 1.82-.45t1.25-1.25q.45-.8.45-1.82 0-1.06-.45-1.86t-1.25-1.26q-.8-.46-1.82-.46zm15.3 14.22q-1.54 0-2.76-.73-1.22-.73-1.93-1.99t-.71-2.84q0-1.6.73-2.86.73-1.26 1.99-1.99t2.84-.73q1.58 0 2.83.73t1.98 1.99q.73 1.26.75 2.86l-.62.48q0 1.44-.67 2.59t-1.82 1.82q-1.15.67-2.61.67m.16-1.4q1.16 0 2.07-.54.91-.54 1.44-1.49.53-.95.53-2.13 0-1.2-.53-2.14-.53-.94-1.44-1.49-.91-.55-2.07-.55-1.14 0-2.06.55-.92.55-1.46 1.49-.54.94-.54 2.14 0 1.18.54 2.13t1.46 1.49q.92.54 2.06.54m4.78 1.3q-.34 0-.56-.21-.22-.21-.22-.55v-3.42l.38-1.58 1.18.3v4.7q0 .34-.22.55-.22.21-.56.21m4.9-6.74h-.88q.06-1.24.65-2.22.59-.98 1.54-1.54.95-.56 2.11-.56.92 0 1.42.26.5.26.38.76-.08.3-.27.4-.19.1-.46.08-.27-.02-.61-.04-1.12-.1-1.99.23-.87.33-1.38 1.01-.51.68-.51 1.62m-.76 6.74q-.36 0-.56-.2-.2-.2-.2-.56v-9.42q0-.36.2-.56.2-.2.56-.2.36 0 .56.2.2.2.2.56v9.42q0 .36-.2.56-.2.2-.56.2m13.22.1q-1.54 0-2.76-.73-1.22-.73-1.93-1.99t-.71-2.84q0-1.6.73-2.86.73-1.26 1.99-1.99t2.84-.73q1.58 0 2.83.73t1.98 1.99q.73 1.26.75 2.86l-.62.48q0 1.44-.67 2.59t-1.82 1.82q-1.15.67-2.61.67m.16-1.4q1.16 0 2.07-.54.91-.54 1.44-1.49.53-.95.53-2.13 0-1.2-.53-2.14-.53-.94-1.44-1.49-.91-.55-2.07-.55-1.14 0-2.06.55-.92.55-1.46 1.49-.54.94-.54 2.14 0 1.18.54 2.13t1.46 1.49q.92.54 2.06.54m4.78 1.3q-.34 0-.56-.21-.22-.21-.22-.55v-3.42l.38-1.58 1.18.3v4.7q0 .34-.22.55-.22.21-.56.21m18.42 0h-8.6q-.32 0-.55-.22-.23-.22-.23-.56v-14.06q0-.32.23-.55.23-.23.55-.23.32 0 .55.23.23.23.23.55v13.36h7.82q.32 0 .55.21.23.21.23.53 0 .32-.23.53-.23.21-.55.21m8.06.1q-1.6 0-2.86-.72-1.26-.72-1.98-1.98t-.72-2.86q0-1.62.72-2.88.72-1.26 1.98-1.98t2.86-.72q1.6 0 2.85.72t1.97 1.98q.72 1.26.74 2.88 0 1.6-.73 2.86-.73 1.26-1.98 1.98t-2.85.72m0-1.4q1.16 0 2.08-.54.92-.54 1.44-1.48.52-.94.52-2.14 0-1.2-.52-2.15t-1.44-1.49q-.92-.54-2.08-.54-1.16 0-2.08.54-.92.54-1.45 1.49-.53.95-.53 2.15t.53 2.14q.53.94 1.45 1.48.92.54 2.08.54m12.38 1.4q-1.18 0-2.34-.4t-1.88-1.2q-.22-.24-.18-.54.04-.3.3-.52.28-.2.58-.16.3.04.5.26.48.56 1.27.86.79.3 1.75.3 1.48 0 2.14-.51.66-.51.68-1.23 0-.72-.68-1.19t-2.24-.73q-2.02-.32-2.96-1.12t-.94-1.9q0-1.02.54-1.7.54-.68 1.44-1.02.9-.34 1.98-.34 1.34 0 2.31.46t1.57 1.24q.2.26.16.54-.04.28-.32.46-.24.14-.55.09-.31-.05-.53-.29-.5-.58-1.16-.85-.66-.27-1.52-.27-1.1 0-1.76.45-.66.45-.66 1.13 0 .46.25.8t.86.6q.61.26 1.71.44 1.5.24 2.37.71.87.47 1.24 1.1.37.63.37 1.37 0 .94-.55 1.65t-1.52 1.11q-.97.4-2.23.4m13.8-.1q-.32 0-.55-.23-.23-.23-.23-.55v-14.06q0-.34.23-.56.23-.22.55-.22.48 0 .7.4l6.74 13.4h-.68l6.62-13.4q.24-.4.7-.4.32 0 .54.22.22.22.22.56v14.06q0 .32-.22.55-.22.23-.54.23-.34 0-.57-.23-.23-.23-.23-.55v-12.04l.34.02-5.9 12.06q-.22.38-.68.38-.5 0-.72-.48l-5.94-11.88.4-.1v12.04q0 .32-.23.55-.23.23-.55.23m23.46.1q-1.54 0-2.76-.73-1.22-.73-1.93-1.99t-.71-2.84q0-1.6.73-2.86.73-1.26 1.99-1.99t2.84-.73q1.58 0 2.83.73t1.98 1.99q.73 1.26.75 2.86l-.62.48q0 1.44-.67 2.59t-1.82 1.82q-1.15.67-2.61.67m.16-1.4q1.16 0 2.07-.54.91-.54 1.44-1.49.53-.95.53-2.13 0-1.2-.53-2.14-.53-.94-1.44-1.49-.91-.55-2.07-.55-1.14 0-2.06.55-.92.55-1.46 1.49-.54.94-.54 2.14 0 1.18.54 2.13t1.46 1.49q.92.54 2.06.54m4.78 1.3q-.34 0-.56-.21-.22-.21-.22-.55v-3.42l.38-1.58 1.18.3v4.7q0 .34-.22.55-.22.21-.56.21m-4.92-12.6q-.32 0-.55-.23-.23-.23-.23-.55 0-.32.18-.52l2.26-2.26q.22-.22.54-.22.34 0 .56.23.22.23.22.57 0 .14-.05.28t-.17.24l-2.24 2.26q-.2.2-.52.2m12.52 12.7q-1.18 0-2.34-.4t-1.88-1.2q-.22-.24-.18-.54.04-.3.3-.52.28-.2.58-.16.3.04.5.26.48.56 1.27.86.79.3 1.75.3 1.48 0 2.14-.51.66-.51.68-1.23 0-.72-.68-1.19t-2.24-.73q-2.02-.32-2.96-1.12t-.94-1.9q0-1.02.54-1.7.54-.68 1.44-1.02.9-.34 1.98-.34 1.34 0 2.31.46t1.57 1.24q.2.26.16.54-.04.28-.32.46-.24.14-.55.09-.31-.05-.53-.29-.5-.58-1.16-.85-.66-.27-1.52-.27-1.1 0-1.76.45-.66.45-.66 1.13 0 .46.25.8t.86.6q.61.26 1.71.44 1.5.24 2.37.71.87.47 1.24 1.1.37.63.37 1.37 0 .94-.55 1.65t-1.52 1.11q-.97.4-2.23.4m23.18-.1h-9.38q-.34 0-.56-.22-.22-.22-.22-.56v-14.06q0-.34.22-.56.22-.22.56-.22h9.38q.32 0 .55.21.23.21.23.55 0 .3-.23.52-.23.22-.55.22h-8.6v5.52h6.26q.34 0 .56.22.22.22.22.54 0 .32-.22.54-.22.22-.56.22h-6.26v5.58h8.6q.32 0 .55.22.23.22.23.52 0 .34-.23.55-.23.21-.55.21m11.12 0q-.24 0-.39-.08-.15-.08-.31-.28l-3.46-4.4-.6-.52-3.48-4.42q-.22-.26-.21-.54.01-.28.19-.49.18-.21.52-.21t.58.24l3.36 4.3.54.44 3.72 4.76q.26.32.22.6-.04.28-.25.44-.21.16-.43.16m-7.92 0q-.32 0-.51-.2t-.2-.48q-.01-.28.21-.54l3.68-4.6.86 1.14-3.5 4.44q-.18.24-.54.24m8.3-9.68-3.62 4.48-.98-1 3.46-4.38q.14-.2.31-.28.17-.08.35-.08.34 0 .52.21t.17.5q-.01.29-.21.55m3.44 9.68q-.36 0-.57-.21-.21-.21-.21-.57v-9.38q0-.36.21-.57.21-.21.57-.21.34 0 .55.21.21.21.21.57v9.38q0 .36-.21.57-.21.21-.55.21m-.02-13.02q-.44 0-.76-.32t-.32-.78q0-.5.33-.79.33-.29.77-.29.42 0 .75.29t.33.79q0 .46-.32.78t-.78.32m9.52 13.12q-1.58 0-2.8-.71-1.22-.71-1.91-1.97t-.69-2.88q0-1.64.72-2.9t1.98-1.97q1.26-.71 2.86-.71 1.62 0 2.87.71t1.96 1.97q.71 1.26.73 2.9l-.9.48q0 1.48-.62 2.63t-1.71 1.8q-1.09.65-2.49.65m.2 4.22q-1.58 0-2.78-.59-1.2-.59-1.98-1.61-.22-.24-.19-.52t.29-.46q.26-.18.58-.12.32.06.5.3.58.72 1.49 1.16.91.44 2.11.44 1.12 0 2.02-.54.9-.54 1.43-1.52.53-.98.53-2.3v-3.04l.58-1.16.94.18v4.08q0 1.62-.72 2.91t-1.96 2.04q-1.24.75-2.84.75m-.04-5.62q1.18 0 2.09-.53.91-.53 1.43-1.47.52-.94.52-2.16 0-1.22-.52-2.17t-1.43-1.48q-.91-.53-2.09-.53-1.18 0-2.1.53-.92.53-1.44 1.48-.52.95-.52 2.17t.52 2.16q.52.94 1.44 1.47.92.53 2.1.53m13.52 1.4q-1.62 0-2.87-.71t-1.96-1.97q-.71-1.26-.71-2.88 0-1.64.67-2.89.67-1.25 1.85-1.97 1.18-.72 2.72-.72 1.52 0 2.65.69t1.75 1.91q.62 1.22.62 2.78 0 .32-.2.51t-.52.19h-8.5v-1.28h8.66l-.86.62q.02-1.16-.42-2.08-.44-.92-1.25-1.44-.81-.52-1.93-.52-1.14 0-2 .54-.86.54-1.33 1.49-.47.95-.47 2.17t.53 2.16q.53.94 1.45 1.48.92.54 2.12.54.72 0 1.45-.25t1.17-.63q.22-.18.5-.19.28-.01.48.15.26.24.27.52.01.28-.23.48-.66.56-1.68.93t-1.96.37m16.7-.1q-.34 0-.56-.22-.22-.22-.22-.54v-5.2q0-1.24-.47-2.04t-1.28-1.2q-.81-.4-1.83-.4-.98 0-1.77.38t-1.25 1.04q-.46.66-.46 1.5h-1.1q.04-1.26.68-2.25t1.7-1.56q1.06-.57 2.36-.57 1.42 0 2.54.59t1.77 1.73q.65 1.14.65 2.78v5.2q0 .32-.22.54-.22.22-.54.22m-8.6 0q-.36 0-.57-.21-.21-.21-.21-.55v-9.4q0-.36.21-.57.21-.21.57-.21.34 0 .55.21.21.21.21.57v9.4q0 .34-.21.55-.21.21-.55.21m17.46 0h-.42q-1.06 0-1.89-.5-.83-.5-1.31-1.37-.48-.87-.48-1.99v-9.78q0-.34.21-.56.21-.22.55-.22.34 0 .56.22.22.22.22.56v9.78q0 1.02.6 1.67.6.65 1.54.65h.54q.32 0 .52.22t.2.56q0 .34-.24.55-.24.21-.6.21m-.3-9.2h-5.1q-.3 0-.5-.19t-.2-.47q0-.3.2-.49t.5-.19h5.1q.3 0 .5.19t.2.49q0 .28-.2.47-.2.19-.5.19m8.6 9.3q-1.62 0-2.87-.71t-1.96-1.97q-.71-1.26-.71-2.88 0-1.64.67-2.89.67-1.25 1.85-1.97 1.18-.72 2.72-.72 1.52 0 2.65.69t1.75 1.91q.62 1.22.62 2.78 0 .32-.2.51t-.52.19h-8.5v-1.28h8.66l-.86.62q.02-1.16-.42-2.08-.44-.92-1.25-1.44-.81-.52-1.93-.52-1.14 0-2 .54-.86.54-1.33 1.49-.47.95-.47 2.17t.53 2.16q.53.94 1.45 1.48.92.54 2.12.54.72 0 1.45-.25t1.17-.63q.22-.18.5-.19.28-.01.48.15.26.24.27.52.01.28-.23.48-.66.56-1.68.93t-1.96.37m11.14 0q-1.18 0-2.34-.4t-1.88-1.2q-.22-.24-.18-.54.04-.3.3-.52.28-.2.58-.16.3.04.5.26.48.56 1.27.86.79.3 1.75.3 1.48 0 2.14-.51.66-.51.68-1.23 0-.72-.68-1.19t-2.24-.73q-2.02-.32-2.96-1.12t-.94-1.9q0-1.02.54-1.7.54-.68 1.44-1.02.9-.34 1.98-.34 1.34 0 2.31.46t1.57 1.24q.2.26.16.54-.04.28-.32.46-.24.14-.55.09-.31-.05-.53-.29-.5-.58-1.16-.85-.66-.27-1.52-.27-1.1 0-1.76.45-.66.45-.66 1.13 0 .46.25.8t.86.6q.61.26 1.71.44 1.5.24 2.37.71.87.47 1.24 1.1.37.63.37 1.37 0 .94-.55 1.65t-1.52 1.11q-.97.4-2.23.4"></path><path fill="#87c498" d="M491.183 80.1a11.56 11.56 0 0 1-6.581 2.313q-2.615 0-5.158-1.53c-3.06-1.831-5.016-7.007-5.87-9.23a14.229 14.229 0 0 0-.622-1.477q3.646-1.885 6.563-4.286c6.652-5.087 10.316-11.632 10.316-18.658q0-1.725-.32-3.415c-.623-5.762-3.326-9.266-6.563-12.272 2.863-3.255 8.181-10.6-.605-22.481l-5.425-7.31.374 9.07c.178 4.216-.534 7.257-2.01 8.804-.534.57-3.201 2.26-5.567 3.504q-1.334-.533-2.757-.978c.142-.196-8.021-2.454-16.63-2.579-8.608-.124-19.102 3.45-20.151 3.877a35.572 35.572 0 0 1-4.82-3.806c-1.494-1.547-2.152-4.606-1.992-8.804l.444-9.106-5.3 7.345c-8.608 11.632-3.45 18.925-.533 22.286-4.625 4.589-7.133 10.085-7.133 15.883 0 7.595 4.269 14.656 11.97 19.903q2.9 1.956 6.225 3.432a45.532 45.532 0 0 0 21.166 4.91 53.358 53.358 0 0 0 9.729-.854c.942 0 2.845.177 4.553.8l.57 1.12c1.422 2.846 3.77 7.648 7.665 10.139a21.877 21.877 0 0 0 11.756 3.806c6.279 0 10.903-3.29 13.607-6.048l4.482 9.747 1.69-26.039-21.13 10.459zm-74.168-28.92a14.229 14.229 0 0 1-.587-3.948c0-5.691 3.38-11.098 9.533-15.26 6.475-4.393 15.119-6.794 24.367-6.794 9.249 0 17.91 2.4 24.385 6.794q1.245.854 2.348 1.76.177.268.444.463l1.423 1.263a17.786 17.786 0 0 1 5.034 9.124q.089.854.089 1.832c0 5.638-2.97 11.01-8.182 15.225q-.534.445-1.138.854c-6.474 4.393-15.136 6.812-24.385 6.812-9.249 0-17.91-2.42-24.385-6.812a24.9 24.9 0 0 1-6.331-6.047 19.565 19.565 0 0 1-2.633-5.265m62.305-27.657q1.334-1.388 2.17-3.326c.48 3.7-1.317 6.065-2.828 7.754l-.819-.604q-1.102-.765-2.312-1.423 2.206-.783 3.789-2.401m-60.188-3.29q.836 1.956 2.152 3.36 1.565 1.602 3.682 2.42-1.085.622-2.135 1.334-.462.302-.889.64c-1.494-1.69-3.308-4.055-2.81-7.755"></path></svg></svg>